<?xml version="1.0" encoding="UTF-8" standalone="no"?>
<!-- Created with Inkscape (http://www.inkscape.org/) -->

<svg
   xmlns:dc="http://purl.org/dc/elements/1.1/"
   xmlns:cc="http://creativecommons.org/ns#"
   xmlns:rdf="http://www.w3.org/1999/02/22-rdf-syntax-ns#"
   xmlns:svg="http://www.w3.org/2000/svg"
   xmlns="http://www.w3.org/2000/svg"
   xmlns:xlink="http://www.w3.org/1999/xlink"
   xmlns:sodipodi="http://sodipodi.sourceforge.net/DTD/sodipodi-0.dtd"
   xmlns:inkscape="http://www.inkscape.org/namespaces/inkscape"
   width="210mm"
   height="297mm"
   viewBox="0 0 210 297"
   version="1.1"
   id="svg13306"
   inkscape:version="0.92.4 (5da689c313, 2019-01-14)"
   sodipodi:docname="atanjacket.svg">
  <defs
     id="defs13300">
    <pattern
       patternTransform="matrix(-10,0,0,10,230.47897,-66.5236)"
       id="pattern12753"
       xlink:href="#Strips1_1-1"
       inkscape:collect="always" />
    <pattern
       inkscape:stockid="Stripes 1:1"
       id="Strips1_1-1"
       patternTransform="translate(0,0) scale(10,10)"
       height="1"
       width="2"
       patternUnits="userSpaceOnUse"
       inkscape:collect="always">
      <rect
         id="rect12022-6"
         height="2"
         width="1"
         y="-0.5"
         x="0"
         style="fill:black;stroke:none" />
    </pattern>
    <pattern
       inkscape:collect="always"
       xlink:href="#Strips1_1"
       id="pattern12774"
       patternTransform="matrix(10,0,0,9.3749994,-14.525193,-55.07176)" />
    <pattern
       inkscape:stockid="Stripes 1:1"
       id="Strips1_1"
       patternTransform="translate(0,0) scale(10,10)"
       height="1"
       width="2"
       patternUnits="userSpaceOnUse"
       inkscape:collect="always">
      <rect
         id="rect12022"
         height="2"
         width="1"
         y="-0.5"
         x="0"
         style="fill:black;stroke:none" />
    </pattern>
  </defs>
  <sodipodi:namedview
     id="base"
     pagecolor="#ffffff"
     bordercolor="#666666"
     borderopacity="1.0"
     inkscape:pageopacity="0.0"
     inkscape:pageshadow="2"
     inkscape:zoom="0.7"
     inkscape:cx="475.62082"
     inkscape:cy="529.7833"
     inkscape:document-units="mm"
     inkscape:current-layer="layer1"
     showgrid="false"
     inkscape:window-width="1920"
     inkscape:window-height="1017"
     inkscape:window-x="1912"
     inkscape:window-y="-8"
     inkscape:window-maximized="1" />
  <metadata
     id="metadata13303">
    <rdf:RDF>
      <cc:Work
         rdf:about="">
        <dc:format>image/svg+xml</dc:format>
        <dc:type
           rdf:resource="http://purl.org/dc/dcmitype/StillImage" />
        <dc:title></dc:title>
      </cc:Work>
    </rdf:RDF>
  </metadata>
  <g
     inkscape:label="Layer 1"
     inkscape:groupmode="layer"
     id="layer1">
    <a
       id="a13082"
       transform="matrix(3.3273762,0,0,2.9728346,-298.7937,-475.27553)">
      <path
         d="m 150.81251,207.04166 a 29.104166,30.427078 0 0 1 -28.40502,30.41829 29.104166,30.427078 0 0 1 -29.769723,-28.95687 29.104166,30.427078 0 0 1 26.974753,-31.80951 29.104166,30.427078 0 0 1 31.06571,27.42861"
         sodipodi:open="true"
         sodipodi:end="6.1870875"
         sodipodi:start="0"
         sodipodi:ry="30.427078"
         sodipodi:rx="29.104166"
         sodipodi:cy="207.04166"
         sodipodi:cx="121.70834"
         sodipodi:type="arc"
         id="path12767"
         style="fill:#f4e3d7;fill-opacity:1;stroke:#d7e3f4;stroke-width:0.25101069;stroke-miterlimit:4;stroke-dasharray:none;stroke-dashoffset:0;stroke-opacity:1" />
    </a>
    <g
       id="g13642"
       transform="matrix(2.3747904,0,0,2.3747904,-150.2477,-195.05382)">
      <path
         sodipodi:nodetypes="ccccscc"
         inkscape:connector-curvature="0"
         id="rect5758-6-2"
         d="m 126.49773,119.35141 c -2.78088,0 -5.01963,4.81637 -5.01963,10.79802 1.05173,13.55815 -0.27204,26.24365 -0.27204,36.82698 h 9.26042 l -1e-5,-34.39583 c 0,-9.26346 -1.18791,-13.2292 -3.96879,-13.2292 z"
         style="opacity:1;fill:#deaa87;fill-opacity:1;stroke-width:0.50276667" />
      <path
         sodipodi:nodetypes="ccssccssssccsscccccc"
         inkscape:connector-curvature="0"
         id="rect5779-8-8-5"
         d="m 101.3623,115.38262 -9.260413,2.64583 c 0,0 -5.291666,1.32296 -5.291666,3.9688 0,10.58333 5.291666,25.13537 5.291666,35.7187 v 9.26042 h 1.322917 v -6.58771 c 0,-0.0147 0.01164,-0.0269 0.02635,-0.0269 h 29.051456 c 0.0147,0 0.0263,0.0121 0.0263,0.0269 v 6.58771 h 1.32292 v -9.26042 c 0,-10.58333 5.29167,-25.13537 5.29167,-35.7187 0,-2.64584 -5.29167,-3.9688 -5.29167,-3.9688 l -9.26042,-2.64583 c -2.7e-4,0.71821 -2.86591,1.30517 -6.45594,1.3224 -3.58975,0.0172 -6.59258,-0.54151 -6.76547,-1.25884 -0.002,-0.0212 -0.002,-0.0424 5.3e-4,-0.0636 z"
         style="display:inline;opacity:1;fill:#deaa87;fill-opacity:1;stroke-width:0.69217646" />
      <path
         sodipodi:nodetypes="cc"
         inkscape:connector-curvature="0"
         id="path11144"
         d="m 101.36231,115.38266 v 44.97917"
         style="fill:none;stroke:#000000;stroke-width:0.26458332px;stroke-linecap:butt;stroke-linejoin:miter;stroke-opacity:1" />
      <path
         sodipodi:nodetypes="cccc"
         inkscape:connector-curvature="0"
         id="path11146"
         d="m 114.59147,115.38266 v 44.97917 0 -44.97917"
         style="fill:none;stroke:#000000;stroke-width:0.26458332px;stroke-linecap:butt;stroke-linejoin:miter;stroke-opacity:1" />
      <path
         sodipodi:nodetypes="ccccccccccccccccccccccccccccccccccccccccccccccccccccc"
         inkscape:connector-curvature="0"
         id="path11148"
         d="m 101.54576,115.68544 v 25.42171 l -0.18345,19.25468 h 6.61458 6.61458 l -0.18345,-19.25468 v -25.42119 c -0.0502,0.0426 -0.11088,0.0847 -0.1819,0.12609 l -0.002,0.001 -0.004,0.002 c -0.0709,0.0409 -0.15178,0.0811 -0.24237,0.1204 -0.09,0.0392 -0.18949,0.0775 -0.29817,0.11472 l -0.002,5.3e-4 -0.006,0.002 c -0.004,0.001 -0.009,0.003 -0.0134,0.004 l -0.002,5.3e-4 c -0.10445,0.0353 -0.21706,0.0696 -0.33745,0.10283 l -0.005,0.002 -0.006,0.002 -0.016,0.004 -0.0119,0.003 c -0.11482,0.031 -0.23638,0.061 -0.36432,0.0899 l -0.007,0.002 c -0.0181,0.004 -0.0364,0.008 -0.0548,0.0119 l -0.0176,0.004 c -0.12884,0.028 -0.26366,0.0549 -0.40411,0.0806 l -0.007,0.002 -0.0176,0.003 -0.0202,0.003 c -0.14116,0.0254 -0.28771,0.0495 -0.43925,0.0724 l -0.002,5.3e-4 -0.0145,0.002 c -0.0293,0.004 -0.0587,0.008 -0.0884,0.0124 -0.14634,0.0214 -0.29702,0.0416 -0.45165,0.0605 -0.0288,0.003 -0.0577,0.007 -0.0868,0.01 -0.1556,0.0183 -0.3149,0.0354 -0.47749,0.0512 -0.0539,0.005 -0.10818,0.0101 -0.16278,0.015 l -0.0346,0.003 c -0.12647,0.0113 -0.25469,0.0218 -0.38447,0.0315 l -0.0109,0.001 c -0.0672,0.005 -0.13469,0.009 -0.20257,0.0134 l -0.0114,5.3e-4 c -0.13762,0.009 -0.2767,0.0175 -0.41703,0.0248 -0.0717,0.004 -0.14374,0.007 -0.21601,0.01 h -0.003 c -0.13623,0.006 -0.27342,0.0115 -0.41134,0.016 l -0.0139,5.3e-4 c -0.0772,0.002 -0.15452,0.004 -0.23203,0.006 l -0.0331,5.2e-4 c -0.14543,0.004 -0.29141,0.006 -0.4377,0.008 -0.041,5.3e-4 -0.082,8e-4 -0.12299,10e-4 -3.12527,0.0143 -5.87381,-0.41098 -6.58979,-1.01957 z"
         style="fill:#d7e3f4;fill-opacity:1;stroke:#d7e3f4;stroke-width:0.041;stroke-miterlimit:4;stroke-dasharray:none;stroke-dashoffset:0;stroke-opacity:1" />
      <path
         sodipodi:nodetypes="cccccccccccc"
         inkscape:connector-curvature="0"
         id="rect11272"
         d="m 109.29981,118.33528 c -0.009,0 0.52916,1.63814 0.52916,1.63814 l -0.52916,1.3651 c 3.77665,14.29689 2.93308,29.64259 3.96875,32.21671 l -2.64584,1.36511 -2.64583,-1.36511 c 0,-0.54605 0.0338,-2.07716 0,-10.92092 0,-6.82557 -1.32192,-18.92592 -1.32292,-21.29579 l -0.52916,-1.3651 0.52916,-1.63814 1.32292,-1.36512 c 0,10e-6 1.32292,1.36512 1.32292,1.36512 z"
         style="fill:#1a4061;fill-opacity:1;stroke:#d7e3f4;stroke-width:0.04676674;stroke-miterlimit:4;stroke-dasharray:none;stroke-dashoffset:0;stroke-opacity:1" />
      <path
         sodipodi:nodetypes="ccc"
         inkscape:connector-curvature="0"
         id="path12771"
         d="m 106.65397,121.2035 1.32292,-0.52917 1.32292,0.52917"
         style="fill:none;stroke:#000000;stroke-width:0.26458332px;stroke-linecap:butt;stroke-linejoin:miter;stroke-opacity:1" />
      <path
         d="m 108.77064,118.02851 a 0.79375124,1.3229136 0 0 1 -0.77468,1.32253 0.79375124,1.3229136 0 0 1 -0.8119,-1.25899 0.79375124,1.3229136 0 0 1 0.73567,-1.38302 0.79375124,1.3229136 0 0 1 0.84725,1.19255"
         sodipodi:open="true"
         sodipodi:end="6.1870875"
         sodipodi:start="0"
         sodipodi:ry="1.3229136"
         sodipodi:rx="0.79375124"
         sodipodi:cy="118.02851"
         sodipodi:cx="107.97689"
         sodipodi:type="arc"
         id="path12781"
         style="fill:#1a4061;fill-opacity:1;stroke:#214478;stroke-width:0.20526804;stroke-miterlimit:4;stroke-dasharray:none;stroke-dashoffset:0;stroke-opacity:1" />
      <path
         inkscape:connector-curvature="0"
         id="rect12787"
         d="m 101.38866,155.07012 c -0.0147,0 -0.0264,0.0121 -0.0264,0.0269 v 5.2648 h 13.22917 v -5.2648 c 0,-0.0147 -0.0116,-0.0269 -0.0264,-0.0269 z"
         style="fill:#1a4061;fill-opacity:1;stroke:#214478;stroke-width:0.28107497;stroke-miterlimit:4;stroke-dasharray:none;stroke-dashoffset:0;stroke-opacity:1" />
      <path
         inkscape:connector-curvature="0"
         id="path12783"
         d="m 107.8219,119.43809 c -0.42069,-0.11313 -0.74213,-0.70494 -0.73971,-1.3619 0.003,-0.88893 0.44321,-1.54145 0.98382,-1.45921 0.27357,0.0416 0.54849,0.31842 0.6772,0.68185 0.078,0.22027 0.14225,0.5768 0.10786,0.59863 -0.009,0.006 -0.0546,0.0105 -0.10133,0.0106 l -0.085,2e-4 -0.0215,-0.15315 c -0.062,-0.44195 -0.24902,-0.78081 -0.49812,-0.90268 -0.06,-0.0293 -0.0893,-0.0354 -0.16951,-0.035 -0.12876,5.3e-4 -0.22035,0.0447 -0.33597,0.16159 -0.14271,0.14429 -0.24955,0.3704 -0.31225,0.66081 -0.0383,0.17725 -0.0416,0.5741 -0.006,0.75128 0.0634,0.3183 0.17828,0.55464 0.34671,0.71335 0.10498,0.0989 0.17492,0.12802 0.30773,0.12802 0.0938,0 0.12043,-0.005 0.18253,-0.0357 0.13784,-0.0677 0.27326,-0.23183 0.36329,-0.4403 0.0812,-0.18799 0.13889,-0.46114 0.13889,-0.6573 v -0.0746 h 0.11166 0.11166 l -0.009,0.1288 c -0.0323,0.46966 -0.17812,0.84643 -0.42004,1.0856 -0.19021,0.18806 -0.41317,0.25824 -0.63279,0.19918 z"
         style="fill:#1a4061;fill-opacity:1;stroke:#214478;stroke-width:0.01293945;stroke-miterlimit:4;stroke-dasharray:none;stroke-dashoffset:0;stroke-opacity:1" />
      <path
         style="fill:none;stroke:url(#pattern12774);stroke-width:0.28792354px;stroke-linecap:butt;stroke-linejoin:miter;stroke-opacity:1"
         d="m 114.85606,119.18605 c -4.67895,1.48828 -3.0079,5.45702 -4.67895,1.48828 -1.67105,-3.96875 -1.67105,-3.96875 -1.67105,-3.96875"
         id="path11154-0"
         inkscape:connector-curvature="0" />
      <path
         style="fill:none;stroke:url(#pattern12753);stroke-width:0.29736617px;stroke-linecap:butt;stroke-linejoin:miter;stroke-opacity:1"
         d="m 101.09772,119.35141 c 4.67895,1.5875 3.0079,5.82083 4.67895,1.5875 1.67105,-4.23333 1.67105,-4.23333 1.67105,-4.23333"
         id="path11154-0-4"
         inkscape:connector-curvature="0" />
      <path
         sodipodi:nodetypes="cccc"
         inkscape:connector-curvature="0"
         id="path10525-6-7"
         d="m 96.070639,116.70558 -2.645841,6.61458 c 0,0 5.29167,-0.29963 6.614592,3.81893 1.32291,4.11857 1.32292,33.22274 1.32292,33.22274"
         style="fill:none;stroke:#000000;stroke-width:0.26458332px;stroke-linecap:butt;stroke-linejoin:miter;stroke-opacity:1" />
      <path
         sodipodi:nodetypes="cccc"
         inkscape:connector-curvature="0"
         id="path10525-6-7-8"
         d="m 119.88314,116.70558 2.64584,6.61458 c 0,0 -5.29167,-0.29963 -6.61459,3.81893 -1.32291,4.11857 -1.32292,33.22274 -1.32292,33.22274"
         style="fill:none;stroke:#000000;stroke-width:0.26458332px;stroke-linecap:butt;stroke-linejoin:miter;stroke-opacity:1" />
      <path
         inkscape:connector-curvature="0"
         id="path12789"
         d="m 93.424808,129.93474 c 0,37.04167 0,37.04167 0,37.04167"
         style="fill:none;stroke:#000000;stroke-width:0.26458332px;stroke-linecap:butt;stroke-linejoin:miter;stroke-opacity:1" />
      <path
         inkscape:connector-curvature="0"
         id="path12791"
         d="m 121.20606,129.93474 c 0,37.04167 0,37.04167 0,37.04167"
         style="fill:none;stroke:#000000;stroke-width:0.26458332px;stroke-linecap:butt;stroke-linejoin:miter;stroke-opacity:1" />
      <path
         sodipodi:nodetypes="ccccscc"
         inkscape:connector-curvature="0"
         id="rect5758-6-2-93"
         d="m 89.456048,119.35141 c 2.78088,0 5.01963,4.81637 5.01963,10.79802 -1.05173,13.55815 0.27204,26.24366 0.27204,36.82699 h -9.26042 l 1e-5,-34.39584 c 0,-9.26346 1.187911,-13.2292 3.96879,-13.2292 z"
         style="opacity:1;fill:#deaa87;fill-opacity:1;stroke-width:0.50276667" />
      <path
         inkscape:connector-curvature="0"
         id="path12992"
         d="m 94.747718,160.36183 c 26.458342,0 26.458342,0 26.458342,0"
         style="fill:none;stroke:#000000;stroke-width:0.25227034px;stroke-linecap:butt;stroke-linejoin:miter;stroke-opacity:1" />
      <path
         inkscape:connector-curvature="0"
         id="path12791-7"
         d="m 94.747718,129.93474 c 0,37.04167 0,37.04167 0,37.04167"
         style="fill:none;stroke:#000000;stroke-width:0.26458332px;stroke-linecap:butt;stroke-linejoin:miter;stroke-opacity:1" />
      <rect
         ry="0.026576338"
         y="155.07016"
         x="101.3623"
         height="1.3229166"
         width="13.229167"
         id="rect13011"
         style="fill:#c87137;fill-opacity:1;stroke:#214478;stroke-width:0.26499999;stroke-miterlimit:4;stroke-dasharray:none;stroke-dashoffset:0;stroke-opacity:1" />
      <path
         sodipodi:nodetypes="ccsc"
         inkscape:connector-curvature="0"
         id="path13013"
         d="m 85.751889,166.97641 -0.264581,-38.36458 c 0,0 -5e-5,-8.1003 3.70416,-9.525 3.43959,-1.32292 3.70417,-1.32292 12.435422,-3.70417"
         style="fill:none;stroke:#000000;stroke-width:0.26458332px;stroke-linecap:butt;stroke-linejoin:miter;stroke-opacity:1" />
      <path
         sodipodi:nodetypes="ccsc"
         inkscape:connector-curvature="0"
         id="path13013-9"
         d="m 130.20189,166.97641 0.26458,-38.36458 c 0,0 5e-5,-8.1003 -3.70416,-9.525 -3.43959,-1.32292 -3.70417,-1.32292 -12.43542,-3.70417"
         style="fill:none;stroke:#000000;stroke-width:0.26458332px;stroke-linecap:butt;stroke-linejoin:miter;stroke-opacity:1" />
      <path
         inkscape:connector-curvature="0"
         id="path13064"
         d="m 85.487308,166.97641 c 9.26041,0 9.26041,0 9.26041,0"
         style="fill:none;stroke:#000000;stroke-width:0.26458332px;stroke-linecap:butt;stroke-linejoin:miter;stroke-opacity:1" />
      <path
         inkscape:connector-curvature="0"
         id="path13077"
         d="m 121.20605,166.97641 h 9.26042"
         style="fill:none;stroke:#000000;stroke-width:0.26458332px;stroke-linecap:butt;stroke-linejoin:miter;stroke-opacity:1" />
      <path
         sodipodi:nodetypes="cc"
         inkscape:connector-curvature="0"
         id="path13079"
         d="m 101.36231,115.44881 c 4.47757,1.71882 8.88387,1.6321 13.22916,0"
         style="fill:none;stroke:#000000;stroke-width:0.26458332px;stroke-linecap:butt;stroke-linejoin:miter;stroke-opacity:1" />
    </g>
  </g>
</svg>
