<?xml version="1.0" encoding="UTF-8" standalone="no"?>
<!-- Created with Inkscape (http://www.inkscape.org/) -->

<svg
   width="194.51801mm"
   height="181.65971mm"
   viewBox="0 0 194.51801 181.65971"
   version="1.1"
   id="svg13306"
   inkscape:version="1.2.2 (732a01da63, 2022-12-09)"
   sodipodi:docname="atanjacket_endscutoff - Copy - Copy.svg"
   xmlns:inkscape="http://www.inkscape.org/namespaces/inkscape"
   xmlns:sodipodi="http://sodipodi.sourceforge.net/DTD/sodipodi-0.dtd"
   xmlns="http://www.w3.org/2000/svg"
   xmlns:svg="http://www.w3.org/2000/svg"
   xmlns:rdf="http://www.w3.org/1999/02/22-rdf-syntax-ns#"
   xmlns:cc="http://creativecommons.org/ns#"
   xmlns:dc="http://purl.org/dc/elements/1.1/">
  <defs
     id="defs13300" />
  <sodipodi:namedview
     id="base"
     pagecolor="#ffffff"
     bordercolor="#666666"
     borderopacity="1.0"
     inkscape:pageopacity="0.0"
     inkscape:pageshadow="2"
     inkscape:zoom="1.4"
     inkscape:cx="324.64286"
     inkscape:cy="290.71429"
     inkscape:document-units="mm"
     inkscape:current-layer="layer1"
     showgrid="true"
     inkscape:window-width="1920"
     inkscape:window-height="1009"
     inkscape:window-x="-8"
     inkscape:window-y="-8"
     inkscape:window-maximized="1"
     inkscape:showpageshadow="2"
     inkscape:pagecheckerboard="0"
     inkscape:deskcolor="#d1d1d1"
     inkscape:lockguides="true" />
  <metadata
     id="metadata13303">
    <rdf:RDF>
      <cc:Work
         rdf:about="">
        <dc:format>image/svg+xml</dc:format>
        <dc:type
           rdf:resource="http://purl.org/dc/dcmitype/StillImage" />
      </cc:Work>
    </rdf:RDF>
  </metadata>
  <g
     inkscape:label="Layer 1"
     inkscape:groupmode="layer"
     id="layer1"
     transform="translate(-8.9157301,-49.393625)">
    <a
       id="a13082"
       transform="matrix(3.3273762,0,0,2.9728346,-298.7937,-475.27553)">
      <path
         d="m 150.81251,207.04166 a 29.104166,30.427078 0 0 1 -28.40502,30.41829 29.104166,30.427078 0 0 1 -29.769723,-28.95687 29.104166,30.427078 0 0 1 26.974753,-31.80951 29.104166,30.427078 0 0 1 31.06571,27.42861"
         sodipodi:open="true"
         sodipodi:end="6.1870875"
         sodipodi:start="0"
         sodipodi:ry="30.427078"
         sodipodi:rx="29.104166"
         sodipodi:cy="207.04166"
         sodipodi:cx="121.70834"
         sodipodi:type="arc"
         id="path12767"
         style="fill:#e5f9f3;fill-opacity:1;stroke:#d7e3f4;stroke-width:0;stroke-miterlimit:4;stroke-dasharray:none;stroke-dashoffset:0;stroke-opacity:1;opacity:1"
         sodipodi:arc-type="arc" />
    </a>
    <g
       id="g13642"
       transform="matrix(2.3747904,0,0,2.3747904,-150.2477,-195.05382)"
       style="stroke-width:0.33687184;stroke-dasharray:none">
      <path
         sodipodi:nodetypes="ccccscc"
         inkscape:connector-curvature="0"
         id="rect5758-6-2"
         d="m 126.49773,119.35141 c -2.78088,0 -5.01963,4.81637 -5.01963,10.79802 1.05173,13.55815 -0.27204,26.24365 -0.27204,36.82698 h 9.26042 l -1e-5,-34.39583 c 0,-9.26346 -1.18791,-13.2292 -3.96879,-13.2292 z"
         style="opacity:1;fill:#fed1aa;fill-opacity:1;stroke-width:0.33687184;stroke-dasharray:none" />
      <path
         sodipodi:nodetypes="ccssccssssccsscccccc"
         inkscape:connector-curvature="0"
         id="rect5779-8-8-5"
         d="m 101.3623,115.38262 -9.260413,2.64583 c 0,0 -5.291666,1.32296 -5.291666,3.9688 0,10.58333 5.291666,25.13537 5.291666,35.7187 v 9.26042 h 1.322917 v -6.58771 c 0,-0.0147 0.01164,-0.0269 0.02635,-0.0269 h 29.051456 c 0.0147,0 0.0263,0.0121 0.0263,0.0269 v 6.58771 h 1.32292 v -9.26042 c 0,-10.58333 5.29167,-25.13537 5.29167,-35.7187 0,-2.64584 -5.29167,-3.9688 -5.29167,-3.9688 l -9.26042,-2.64583 c -2.7e-4,0.71821 -2.86591,1.30517 -6.45594,1.3224 -3.58975,0.0172 -6.59258,-0.54151 -6.76547,-1.25884 -0.002,-0.0212 -0.002,-0.0424 5.3e-4,-0.0636 z"
         style="display:inline;opacity:1;fill:#fed1aa;fill-opacity:1;stroke-width:0.33687184;stroke-dasharray:none" />
      <path
         sodipodi:nodetypes="cc"
         inkscape:connector-curvature="0"
         id="path11144"
         d="M 101.36231,115.54915 V 160.0297"
         style="fill:none;stroke:#496384;stroke-width:0.335;stroke-linecap:round;stroke-linejoin:miter;stroke-dasharray:none;stroke-opacity:1" />
      <path
         sodipodi:nodetypes="cccc"
         inkscape:connector-curvature="0"
         id="path11146"
         d="m 114.59147,115.54977 v 44.64469 0 -44.64469"
         style="fill:none;stroke:#496384;stroke-width:0.335617;stroke-linecap:round;stroke-linejoin:miter;stroke-dasharray:none;stroke-opacity:1" />
      <path
         sodipodi:nodetypes="cccccccccccccccccccccc"
         inkscape:connector-curvature="0"
         id="path11148"
         d="m 101.51059,115.71533 0.0352,25.39182 -0.18345,19.25468 h 6.61458 6.61458 l -0.18345,-19.25468 0.008,-25.43567 c -0.68695,0.6561 -2.86649,0.85661 -4.17124,0.95498 l -0.0109,0.001 c -0.0672,0.005 -0.13469,0.009 -0.20257,0.0134 l -0.0114,5.3e-4 c -0.13762,0.009 -0.2767,0.0175 -0.41703,0.0248 -0.0717,0.004 -0.14374,0.007 -0.21601,0.01 h -0.003 c -0.13623,0.006 -0.27342,0.0115 -0.41134,0.016 l -0.0139,5.3e-4 c -0.0772,0.002 -0.15452,0.004 -0.23203,0.006 l -0.0331,5.2e-4 c -0.14543,0.004 -0.29141,0.006 -0.4377,0.008 -0.041,5.3e-4 -0.082,8e-4 -0.12299,0.001 -3.12527,0.0143 -5.86955,-0.45099 -6.58553,-1.05958 z"
         style="fill:#d7e3f4;fill-opacity:1;stroke:#d7e3f4;stroke-width:0.336872;stroke-miterlimit:4;stroke-dasharray:none;stroke-dashoffset:0;stroke-opacity:1;stroke-linejoin:round" />
      <path
         sodipodi:nodetypes="cccccccccccc"
         inkscape:connector-curvature="0"
         id="rect11272"
         d="m 109.29981,118.33528 c -0.009,0 0.52916,1.63814 0.52916,1.63814 l -0.52916,1.3651 c 3.77665,14.29689 2.93308,29.64259 3.96875,32.21671 l -2.64584,1.36511 -2.64583,-1.36511 c 0,-0.54605 0.0338,-2.07716 0,-10.92092 0,-6.82557 -1.32192,-18.92592 -1.32292,-21.29579 l -0.52916,-1.3651 0.52916,-1.63814 1.32292,-1.36512 c 0,10e-6 1.32292,1.36512 1.32292,1.36512 z"
         style="fill:#1a4061;fill-opacity:1;stroke:#d7e3f4;stroke-width:0.33687184;stroke-miterlimit:4;stroke-dasharray:none;stroke-dashoffset:0;stroke-opacity:1" />
      <path
         sodipodi:nodetypes="ccc"
         inkscape:connector-curvature="0"
         id="path12771"
         d="m 106.65397,121.2035 1.32292,-0.52917 1.32292,0.52917"
         style="fill:none;stroke:#496384;stroke-width:0.33687184;stroke-linecap:butt;stroke-linejoin:miter;stroke-opacity:1;stroke-dasharray:none" />
      <path
         d="m 108.77221,118.05835 a 0.79532176,1.3509135 0 0 1 -0.79527,1.35091 0.79532176,1.3509135 0 0 1 -0.79537,-1.35075 0.79532176,1.3509135 0 0 1 0.79518,-1.35107 0.79532176,1.3509135 0 0 1 0.79546,1.35059"
         sodipodi:open="true"
         sodipodi:end="6.2829458"
         sodipodi:start="0"
         sodipodi:ry="1.3509135"
         sodipodi:rx="0.79532176"
         sodipodi:cy="118.05835"
         sodipodi:cx="107.97689"
         sodipodi:type="arc"
         id="path12781"
         style="fill:#1a4061;fill-opacity:1;stroke:#1a4061;stroke-width:0.333731;stroke-miterlimit:4;stroke-dasharray:none;stroke-dashoffset:0;stroke-opacity:1"
         sodipodi:arc-type="arc" />
      <path
         inkscape:connector-curvature="0"
         id="rect12787"
         d="m 101.38866,155.07012 c -0.0147,0 -0.0264,0.0121 -0.0264,0.0269 v 5.2648 h 13.22917 v -5.2648 c 0,-0.0147 -0.0116,-0.0269 -0.0264,-0.0269 z"
         style="fill:#1a4061;fill-opacity:1;stroke:#214478;stroke-width:0.33687184;stroke-miterlimit:4;stroke-dasharray:none;stroke-dashoffset:0;stroke-opacity:1" />
      <path
         style="fill:none;stroke:#496384;stroke-width:0.336872;stroke-linecap:round;stroke-linejoin:miter;stroke-dasharray:none;stroke-opacity:1"
         d="m 114.54656,119.21419 c -4.67895,1.48828 -2.72654,5.42888 -4.39759,1.46014 -0.60796,-1.32649 -1.13662,-2.6425 -1.71325,-3.98281"
         id="path11154-0"
         inkscape:connector-curvature="0"
         sodipodi:nodetypes="ccc" />
      <path
         style="fill:none;stroke:#496384;stroke-width:0.336872;stroke-linecap:round;stroke-linejoin:miter;stroke-dasharray:none;stroke-opacity:1"
         d="m 101.38534,119.1744 c 4.67895,1.48828 2.76633,5.46867 4.43738,1.49993 0.60796,-1.32649 1.13662,-2.6425 1.71325,-3.98281"
         id="path11154-0-5"
         inkscape:connector-curvature="0"
         sodipodi:nodetypes="ccc" />
      <path
         inkscape:connector-curvature="0"
         id="path12789"
         d="m 93.424808,129.93474 c 0,37.04167 0,37.04167 0,37.04167"
         style="fill:none;stroke:#000000;stroke-width:0.33687184;stroke-linecap:butt;stroke-linejoin:miter;stroke-opacity:1;stroke-dasharray:none" />
      <path
         inkscape:connector-curvature="0"
         id="path12791"
         d="m 121.20606,129.93474 c 0,37.04167 0,37.04167 0,37.04167"
         style="fill:#84420a;stroke:#ab7d55;stroke-width:0.33687184;stroke-linecap:butt;stroke-linejoin:miter;stroke-opacity:1;stroke-dasharray:none" />
      <path
         sodipodi:nodetypes="ccccscc"
         inkscape:connector-curvature="0"
         id="rect5758-6-2-93"
         d="m 89.456048,119.35141 c 2.78088,0 5.01963,4.81637 5.01963,10.79802 -1.05173,13.55815 0.27204,26.24366 0.27204,36.82699 h -9.26042 l 1e-5,-34.39584 c 0,-9.26346 1.187911,-13.2292 3.96879,-13.2292 z"
         style="opacity:1;fill:#fed1aa;fill-opacity:1;stroke-width:0.33687184;stroke-dasharray:none" />
      <path
         inkscape:connector-curvature="0"
         id="path12992"
         d="m 94.747718,160.36183 c 26.458342,0 26.458342,0 26.458342,0"
         style="fill:none;stroke:#ab7d55;stroke-width:0.33687184;stroke-linecap:butt;stroke-linejoin:miter;stroke-opacity:1;stroke-dasharray:none" />
      <path
         inkscape:connector-curvature="0"
         id="path12791-7"
         d="m 94.747718,129.93474 c 0,37.04167 0,37.04167 0,37.04167"
         style="fill:#2b69a3;stroke:#ab7d55;stroke-width:0.33687184;stroke-linecap:butt;stroke-linejoin:miter;stroke-opacity:1;stroke-dasharray:none;fill-opacity:1" />
      <rect
         ry="0.026576338"
         y="155.07016"
         x="101.3623"
         height="1.3229166"
         width="13.229167"
         id="rect13011"
         style="fill:#ac560e;fill-opacity:1;stroke:#1a4061;stroke-width:0.33687184;stroke-miterlimit:4;stroke-dasharray:none;stroke-dashoffset:0;stroke-opacity:1" />
      <path
         sodipodi:nodetypes="ccsc"
         inkscape:connector-curvature="0"
         id="path13013"
         d="m 85.751889,166.97641 -0.264581,-38.36458 c 0,0 -5e-5,-8.1003 3.70416,-9.525 3.43959,-1.32292 3.44728,-1.2594 12.178532,-3.64065"
         style="fill:none;stroke:#6b3d14;stroke-width:0;stroke-linecap:butt;stroke-linejoin:miter;stroke-opacity:0.56470591;stroke-dasharray:none" />
      <path
         sodipodi:nodetypes="cccsc"
         inkscape:connector-curvature="0"
         id="path13013-9"
         d="m 130.20189,166.97641 0.19446,-28.19737 0.0701,-10.16721 c 0,0 5e-5,-8.1003 -3.70416,-9.525 -3.43959,-1.32292 -3.43959,-1.25677 -12.17084,-3.63802"
         style="fill:none;stroke:#6b3d14;stroke-width:0;stroke-linecap:butt;stroke-linejoin:miter;stroke-dasharray:none;stroke-opacity:0.56470591" />
      <path
         inkscape:connector-curvature="0"
         id="path13064"
         d="m 85.487308,166.97641 c 9.26041,0 9.26041,0 9.26041,0"
         style="fill:none;stroke:#6b3d14;stroke-width:0;stroke-linecap:butt;stroke-linejoin:miter;stroke-opacity:0.56470591;stroke-dasharray:none" />
      <path
         inkscape:connector-curvature="0"
         id="path13077"
         d="m 121.20605,166.97641 h 9.26042"
         style="fill:none;stroke:#6b3d14;stroke-width:0;stroke-linecap:butt;stroke-linejoin:miter;stroke-opacity:0.56470591;stroke-dasharray:none" />
      <path
         sodipodi:nodetypes="cc"
         inkscape:connector-curvature="0"
         id="path13079"
         d="m 101.36231,115.44881 c 4.47757,1.71882 8.88387,1.6321 13.22916,0"
         style="fill:none;stroke:#496384;stroke-width:0;stroke-linecap:round;stroke-linejoin:round;stroke-opacity:1;stroke-dasharray:none" />
    </g>
  </g>
  <g
     inkscape:groupmode="layer"
     id="layer2"
     inkscape:label="collar"
     transform="translate(-66.99628,-2.6458333)">
    <path
       sodipodi:nodetypes="cccc"
       inkscape:connector-curvature="0"
       id="path10525-6-7"
       d="m 96.060515,117.07704 -2.636251,6.45704 c 0,0 5.29239,-0.29786 6.615486,3.79648 1.3231,4.09437 1.32311,33.02747 1.32311,33.02747"
       style="stroke-width:0.335904;stroke-dasharray:none;fill:none;stroke:#ab7d55;stroke-linecap:round;stroke-linejoin:miter;stroke-opacity:1"
       transform="matrix(2.3747904,0,0,2.3747904,-92.16715,-241.80161)" />
    <path
       sodipodi:nodetypes="cccc"
       inkscape:connector-curvature="0"
       id="path10525-6-7-8"
       d="m 119.90322,117.08506 2.62629,6.40805 c 0,0 -5.29238,-0.29789 -6.61548,3.79677 -1.32309,4.09467 -1.3231,33.02992 -1.3231,33.02992"
       style="stroke-width:0.335915;stroke-dasharray:none;fill:none;stroke:#ab7d55;stroke-linecap:round;stroke-linejoin:miter;stroke-opacity:1"
       transform="matrix(2.3747904,0,0,2.3747904,-92.16715,-241.80161)" />
  </g>
</svg>
