<?xml version="1.0" encoding="UTF-8" standalone="no"?>
<!-- Created with Inkscape (http://www.inkscape.org/) -->

<svg
   width="191.67068mm"
   height="171.57259mm"
   viewBox="0 0 191.67068 171.57259"
   version="1.1"
   id="svg5"
   inkscape:version="1.2.2 (732a01da63, 2022-12-09)"
   sodipodi:docname="golf website image path a tan flag.svg"
   xmlns:inkscape="http://www.inkscape.org/namespaces/inkscape"
   xmlns:sodipodi="http://sodipodi.sourceforge.net/DTD/sodipodi-0.dtd"
   xmlns="http://www.w3.org/2000/svg"
   xmlns:svg="http://www.w3.org/2000/svg">
  <sodipodi:namedview
     id="namedview7"
     pagecolor="#ffffff"
     bordercolor="#000000"
     borderopacity="0.25"
     inkscape:showpageshadow="2"
     inkscape:pageopacity="0.0"
     inkscape:pagecheckerboard="0"
     inkscape:deskcolor="#d1d1d1"
     inkscape:document-units="mm"
     showgrid="false"
     inkscape:zoom="0.7071068"
     inkscape:cx="57.275648"
     inkscape:cy="299.81327"
     inkscape:window-width="1920"
     inkscape:window-height="1009"
     inkscape:window-x="-8"
     inkscape:window-y="-8"
     inkscape:window-maximized="1"
     inkscape:current-layer="layer2" />
  <defs
     id="defs2">
    <linearGradient
       id="linearGradient4749"
       inkscape:swatch="solid">
      <stop
         style="stop-color:#ffffff;stop-opacity:1;"
         offset="0"
         id="stop4747" />
    </linearGradient>
    <linearGradient
       id="linearGradient2128"
       inkscape:swatch="solid">
      <stop
         style="stop-color:#228c3a;stop-opacity:1;"
         offset="0"
         id="stop2126" />
    </linearGradient>
  </defs>
  <g
     inkscape:groupmode="layer"
     id="layer2"
     inkscape:label="Background"
     style="display:inline"
     transform="translate(-9.1646576,-33.5)">
    <path
       id="path382"
       style="display:inline;fill:#a8cbfe;stroke-width:0.264583"
       d="M 200.83534,115.54222 A 95.835342,82.042221 0 0 1 105,197.58444 95.835342,82.042221 0 0 1 9.1646576,115.54222 95.835342,82.042221 0 0 1 105,33.5 a 95.835342,82.042221 0 0 1 95.83534,82.04222 z" />
  </g>
  <g
     inkscape:groupmode="layer"
     id="layer5"
     inkscape:label="Hill Bottom"
     transform="translate(-9.1646576,-33.5)">
    <path
       id="path602-2"
       style="display:inline;fill:#228c3a;stroke-width:0.271078"
       d="M 197.67836,171.25121 A 92.67836,33.821388 0 0 1 105,205.07259 92.67836,33.821388 0 0 1 12.32164,171.25121 92.67836,33.821388 0 0 1 105,137.42982 a 92.67836,33.821388 0 0 1 92.67836,33.82139 z" />
  </g>
  <g
     inkscape:groupmode="layer"
     id="layer3"
     inkscape:label="Hill"
     style="display:inline"
     transform="translate(-9.1646576,-33.5)">
    <path
       id="path602"
       style="display:inline;fill:#228c3a;stroke-width:0.256809"
       d="M 188.17848,155.6308 A 83.178482,33.821388 0 0 1 105,189.45219 83.178482,33.821388 0 0 1 21.821518,155.6308 83.178482,33.821388 0 0 1 105,121.80941 83.178482,33.821388 0 0 1 188.17848,155.6308 Z" />
  </g>
  <g
     inkscape:label="Green and Fringe"
     inkscape:groupmode="layer"
     id="layer1"
     style="display:inline"
     transform="translate(-9.1646576,-33.5)">
    <path
       id="path111"
       style="display:inline;fill:#28a745;stroke-width:0.350491"
       d="M 166.44209,144.55911 A 61.442093,16.659231 0 0 1 105,161.21834 61.442093,16.659231 0 0 1 43.557907,144.55911 61.442093,16.659231 0 0 1 105,127.89988 a 61.442093,16.659231 0 0 1 61.44209,16.65923 z" />
    <path
       id="ellipse217"
       style="display:inline;fill:#6dc381;stroke-width:0.264583"
       d="M 158.38118,143.12605 A 53.38118,10.927021 0 0 1 105,154.05307 53.38118,10.927021 0 0 1 51.61882,143.12605 53.38118,10.927021 0 0 1 105,132.19903 a 53.38118,10.927021 0 0 1 53.38118,10.92702 z" />
    <path
       id="ellipse217-5"
       style="display:inline;stroke-width:0.0139359"
       d="m 107.8115,144.05846 a 2.8115001,0.57550883 0 0 1 -2.8115,0.57551 2.8115001,0.57550883 0 0 1 -2.8115,-0.57551 2.8115001,0.57550883 0 0 1 2.8115,-0.57551 2.8115001,0.57550883 0 0 1 2.8115,0.57551 z" />
  </g>
  <g
     inkscape:groupmode="layer"
     id="layer8"
     inkscape:label="Sun"
     transform="translate(-9.1646576,-33.5)">
    <path
       id="path12691"
       style="fill:#ffc107;stroke:#c1c1c1;stroke-width:0"
       d="M 115.38654,58.772598 A 10.386537,9.8798771 0 0 1 105,68.652475 10.386537,9.8798771 0 0 1 94.613463,58.772598 10.386537,9.8798771 0 0 1 105,48.892721 a 10.386537,9.8798771 0 0 1 10.38654,9.879877 z" />
  </g>
  <g
     inkscape:groupmode="layer"
     id="layer7"
     inkscape:label="Flag"
     transform="translate(-9.1646576,-33.5)">
    <path
       id="rect10219"
       style="fill:#8a8a8a;stroke:#c1c1c1;stroke-width:0.657"
       d="m 104.87334,106.90533 h 0.25333 v 36.73287 h -0.25333 z" />
    <path
       id="rect10363"
       style="display:inline;fill:#fed1aa;fill-opacity:1;stroke:#ffffff;stroke-width:0;stroke-dasharray:none;stroke-opacity:1"
       d="m 105.45595,106.57683 h 8.52432 v 5.63917 h -8.52432 z" />
  </g>
</svg>
