<?xml version="1.0" encoding="UTF-8" standalone="no"?>
<!-- Created with Inkscape (http://www.inkscape.org/) -->

<svg
   width="191.67068mm"
   height="172.10176mm"
   viewBox="0 0 191.67068 172.10176"
   version="1.1"
   id="svg5"
   inkscape:version="1.2.2 (732a01da63, 2022-12-09)"
   sodipodi:docname="golf website image path a tan flag - Copy.svg"
   xmlns:inkscape="http://www.inkscape.org/namespaces/inkscape"
   xmlns:sodipodi="http://sodipodi.sourceforge.net/DTD/sodipodi-0.dtd"
   xmlns:xlink="http://www.w3.org/1999/xlink"
   xmlns="http://www.w3.org/2000/svg"
   xmlns:svg="http://www.w3.org/2000/svg">
  <sodipodi:namedview
     id="namedview7"
     pagecolor="#ffffff"
     bordercolor="#000000"
     borderopacity="0.25"
     inkscape:showpageshadow="2"
     inkscape:pageopacity="0.0"
     inkscape:pagecheckerboard="0"
     inkscape:deskcolor="#d1d1d1"
     inkscape:document-units="mm"
     showgrid="false"
     inkscape:zoom="0.99999999"
     inkscape:cx="343"
     inkscape:cy="347"
     inkscape:window-width="1920"
     inkscape:window-height="1009"
     inkscape:window-x="1912"
     inkscape:window-y="-8"
     inkscape:window-maximized="1"
     inkscape:current-layer="layer2" />
  <defs
     id="defs2">
    <linearGradient
       inkscape:collect="always"
       id="linearGradient71464">
      <stop
         style="stop-color:#3b3b3b;stop-opacity:1;"
         offset="0"
         id="stop71460" />
      <stop
         style="stop-color:#3b3b3b;stop-opacity:0;"
         offset="1"
         id="stop71462" />
    </linearGradient>
    <linearGradient
       id="linearGradient4749"
       inkscape:swatch="solid">
      <stop
         style="stop-color:#ffffff;stop-opacity:1;"
         offset="0"
         id="stop4747" />
    </linearGradient>
    <linearGradient
       id="linearGradient2128"
       inkscape:swatch="solid">
      <stop
         style="stop-color:#228c3a;stop-opacity:1;"
         offset="0"
         id="stop2126" />
    </linearGradient>
    <linearGradient
       inkscape:collect="always"
       xlink:href="#linearGradient71464"
       id="linearGradient71468"
       x1="103.84703"
       y1="124.38087"
       x2="106.15297"
       y2="124.38087"
       gradientUnits="userSpaceOnUse" />
  </defs>
  <g
     inkscape:groupmode="layer"
     id="layer2"
     inkscape:label="Background"
     style="display:inline"
     transform="translate(-9.1646571,-32.970832)">
    <path
       id="path382"
       style="display:inline;fill:#a8cbfe;stroke:#496384;stroke-width:0;stroke-dasharray:none;stroke-opacity:1"
       d="M 200.83534,115.01305 A 95.835342,82.042221 0 0 1 105,197.05527 95.835342,82.042221 0 0 1 9.1646576,115.01305 95.835342,82.042221 0 0 1 105,32.970833 95.835342,82.042221 0 0 1 200.83534,115.01305 Z" />
    <path
       id="rect10363"
       style="display:inline;fill:#fed1aa;fill-opacity:1;stroke:#3b3b3b;stroke-width:0;stroke-dasharray:none;stroke-opacity:1;paint-order:stroke markers fill"
       d="m 105.57595,105.09398 h 10.90557 v 7.22667 h -10.90557 z" />
  </g>
  <g
     inkscape:groupmode="layer"
     id="layer5"
     inkscape:label="Hill Bottom"
     transform="translate(-9.1646571,-32.970832)">
    <path
       id="path602-2"
       style="display:inline;fill:#228c3a;stroke:#155724;stroke-width:0;stroke-dasharray:none;stroke-opacity:1"
       d="M 197.67836,171.25121 A 92.67836,33.821388 0 0 1 105,205.07259 92.67836,33.821388 0 0 1 12.32164,171.25121 92.67836,33.821388 0 0 1 105,137.42982 a 92.67836,33.821388 0 0 1 92.67836,33.82139 z" />
    <path
       id="path602-8"
       style="display:inline;fill:#228c3a;stroke:#155724;stroke-width:0;stroke-dasharray:none;stroke-opacity:1"
       d="m 187.91962,152.83675 a 83.178482,33.821388 0 0 1 -83.17848,33.82139 83.178482,33.821388 0 0 1 -83.178475,-33.82139 83.178482,33.821388 0 0 1 83.178475,-33.8214 83.178482,33.821388 0 0 1 83.17848,33.8214 z" />
  </g>
  <g
     inkscape:groupmode="layer"
     id="layer3"
     inkscape:label="Hill"
     style="display:inline"
     transform="translate(-9.1646571,-32.970832)">
    <path
       id="path602"
       style="display:inline;fill:#228c3a;stroke:#228c3a;stroke-width:0.257;stroke-dasharray:none;stroke-opacity:1"
       d="M 188.17848,160.08883 A 83.178482,33.821388 0 0 1 105,193.91022 83.178482,33.821388 0 0 1 21.821523,160.08883 83.178482,33.821388 0 0 1 105,126.26744 a 83.178482,33.821388 0 0 1 83.17848,33.82139 z" />
  </g>
  <g
     inkscape:label="Green and Fringe"
     inkscape:groupmode="layer"
     id="layer1"
     style="display:inline"
     transform="translate(-9.1646571,-32.970832)">
    <path
       id="path111"
       style="display:inline;fill:#28a745;stroke-width:0.350491"
       d="M 166.44209,144.55911 A 61.442093,16.659231 0 0 1 105,161.21834 61.442093,16.659231 0 0 1 43.557907,144.55911 61.442093,16.659231 0 0 1 105,127.89988 a 61.442093,16.659231 0 0 1 61.44209,16.65923 z" />
    <path
       id="ellipse217"
       style="display:inline;fill:#6dc381;stroke-width:0.264583"
       d="M 158.38118,143.12605 A 53.38118,10.927021 0 0 1 105,154.05307 53.38118,10.927021 0 0 1 51.61882,143.12605 53.38118,10.927021 0 0 1 105,132.19903 a 53.38118,10.927021 0 0 1 53.38118,10.92702 z" />
    <path
       id="ellipse217-5"
       style="display:inline;stroke-width:0.0216852"
       d="m 109.66359,144.32304 a 4.6635835,0.84009163 0 0 1 -4.66359,0.8401 4.6635835,0.84009163 0 0 1 -4.66358,-0.8401 4.6635835,0.84009163 0 0 1 4.66358,-0.84009 4.6635835,0.84009163 0 0 1 4.66359,0.84009 z" />
  </g>
  <g
     inkscape:groupmode="layer"
     id="layer8"
     inkscape:label="Sun"
     transform="translate(-9.1646571,-32.970832)">
    <path
       id="path12691"
       style="fill:#ffc107;stroke:#7b5d03;stroke-width:0;stroke-opacity:1"
       d="M 115.38654,58.772598 A 10.386537,9.8798771 0 0 1 105,68.652475 10.386537,9.8798771 0 0 1 94.613463,58.772598 10.386537,9.8798771 0 0 1 105,48.892721 a 10.386537,9.8798771 0 0 1 10.38654,9.879877 z" />
  </g>
  <g
     inkscape:groupmode="layer"
     id="layer7"
     inkscape:label="Flag"
     transform="translate(-9.1646571,-32.970832)">
    <path
       id="rect10219"
       style="fill:#c2c2c2;fill-opacity:1;stroke:url(#linearGradient71468);stroke-width:0;stroke-dasharray:none;stroke-opacity:1;paint-order:stroke markers fill"
       d="m 104.42273,105.1008 h 1.15454 v 38.56013 h -1.15454 z" />
  </g>
</svg>
