<?xml version="1.0" encoding="UTF-8" standalone="no"?>
<!-- Created with Inkscape (http://www.inkscape.org/) -->

<svg
   version="1.1"
   id="svg2"
   width="1315.1528"
   height="315.49689"
   viewBox="0 0 1315.1528 315.49689"
   sodipodi:docname="new day darker grey.svg"
   inkscape:version="1.2.2 (732a01da63, 2022-12-09)"
   xmlns:inkscape="http://www.inkscape.org/namespaces/inkscape"
   xmlns:sodipodi="http://sodipodi.sourceforge.net/DTD/sodipodi-0.dtd"
   xmlns="http://www.w3.org/2000/svg"
   xmlns:svg="http://www.w3.org/2000/svg">
  <defs
     id="defs6">
    <clipPath
       clipPathUnits="userSpaceOnUse"
       id="clipPath1633">
      <rect
         style="fill:#808080;stroke:#969696;stroke-width:0"
         id="rect1635"
         width="1490.953"
         height="416.62833"
         x="235.82736"
         y="673.41815" />
    </clipPath>
    <clipPath
       clipPathUnits="userSpaceOnUse"
       id="clipPath1693">
      <path
         style="fill:#000000;stroke-width:0.986194"
         d="m 1487.2269,1048.255 c -2.5934,-0.4375 -10.6095,-0.9073 -17.8135,-1.044 -12.0435,-0.2285 -13.5194,-0.454 -18.3291,-2.801 -2.8771,-1.4038 -5.8062,-2.5524 -6.5092,-2.5524 -2.3215,0 -17.2221,-6.6827 -17.782,-7.975 -0.3017,-0.6967 -3.9208,-3.4336 -8.0422,-6.0818 -17.0435,-10.9517 -39.453,-34.96689 -39.453,-42.27995 0,-2.77959 -3.2739,-8.5423 -6.172,-10.86383 -1.3906,-1.11403 -1.8597,-2.14118 -1.2718,-2.78449 0.5125,-0.56062 1.1904,-2.89884 1.5065,-5.19604 1.8631,-13.53759 3.2043,-16.52146 8.8189,-19.61982 1.873,-1.03362 3.4055,-2.20595 3.4055,-2.6052 0,-1.81908 5.7387,-5.61984 8.4852,-5.61984 2.0462,0 4.1983,-1.10774 6.9701,-3.58753 3.9488,-3.53286 4.1642,-3.59777 14.1362,-4.26 6.5973,-0.43812 10.5497,-1.12421 11.3408,-1.96866 1.5611,-1.66608 0.8287,-5.78923 -2.4143,-13.5925 -2.4627,-5.92534 -10.3117,-16.50227 -12.2463,-16.50227 -1.0371,0 -7.4103,8.51214 -7.4103,9.8972 0,1.39818 -4.3915,4.65375 -7.335,5.4378 -1.4408,0.38377 -3.9525,1.68479 -5.5816,2.89116 -1.6291,1.20637 -3.5388,2.1934 -4.2438,2.1934 -0.705,0 -1.8187,0.47552 -2.4748,1.05671 -0.6562,0.58119 -4.3905,2.19126 -8.2987,3.57792 -11.2906,4.00606 -25.5914,3.59358 -32.7324,-0.9441 -1.5009,-0.95373 -4.3913,-1.99432 -6.4231,-2.31241 -3.0946,-0.48448 -4.351,-0.11599 -7.7411,2.27033 -2.2257,1.56677 -4.5456,2.84869 -5.1552,2.84869 -0.6096,0 -2.313,0.97845 -3.7854,2.17434 -1.5305,1.24317 -5.8182,2.86778 -10.0119,3.79357 -4.0342,0.89057 -8.815,2.27925 -10.6239,3.08595 -2.6233,1.16994 -3.8955,1.25626 -6.2871,0.42659 -1.649,-0.5721 -4.8844,-1.46542 -7.1897,-1.98519 -3.7982,-0.85637 -12.0503,-6.62509 -12.0503,-8.42394 0,-1.57826 -6.3549,-1.48226 -9.1436,0.13813 -1.5809,0.91858 -6.1823,2.5677 -10.2255,3.66472 -6.2625,1.6992 -8.0129,1.84026 -11.8197,0.95245 -2.4575,-0.57318 -5.3887,-1.04214 -6.5134,-1.04214 -2.9796,0 -9.3984,-2.7858 -13.8493,-6.01061 -2.1307,-1.54381 -5.3052,-3.77229 -7.0543,-4.95218 -1.7492,-1.17989 -3.9293,-3.54354 -4.8449,-5.25254 -0.9155,-1.70902 -2.5847,-3.84478 -3.7091,-4.74616 -1.9544,-1.56667 -2.2165,-1.56555 -5.951,0.0255 -11.9652,5.09787 -25.3639,7.27897 -33.3899,5.43536 -2.8027,-0.6438 -6.0968,-1.1786 -7.3203,-1.18845 -2.6618,-0.0214 -11.7428,-3.41556 -14.1764,-5.29862 -1.0442,-0.80792 -3.312,-1.22287 -5.7156,-1.04583 -3.656,0.26931 -4.2315,0.71426 -6.9814,5.39839 -1.9752,3.36455 -3.9563,5.42132 -5.8109,6.03305 -3.8631,1.27419 -11.8673,6.08549 -14.0073,8.41969 -2.4354,2.65655 -8.5104,4.07785 -17.139,4.00983 -4.0121,-0.0317 -8.5406,0.2209 -10.0635,0.56118 -5.8619,1.30992 -12.6383,-4.1145 -17.9677,-14.38294 -2.788,-5.37188 -3.1325,-7.01924 -3.1438,-15.03173 -0.01,-6.8158 0.4068,-9.56598 1.7172,-11.33733 0.9514,-1.28626 1.7299,-3.11588 1.7299,-4.06584 0,-0.94995 1.1788,-2.70814 2.6196,-3.90709 1.4408,-1.19896 2.6197,-2.73362 2.6197,-3.41036 0,-0.67675 0.4722,-1.23045 1.0496,-1.23045 0.5773,0 2.7263,-2.06737 4.7758,-4.59416 2.9425,-3.62797 4.9147,-4.98802 9.3772,-6.46694 5.4525,-1.80704 8.2232,-3.379 11.9712,-6.7919 1.5086,-1.37368 2.2533,-1.448 5.0707,-0.50601 4.3863,1.46649 5.0323,0.6244 2.9898,-3.89716 -0.9367,-2.07346 -1.703,-4.70743 -1.703,-5.85326 0,-1.14583 -0.9468,-3.64815 -2.1041,-5.56072 -1.5585,-2.57564 -2.2228,-5.82143 -2.5618,-12.51644 -0.7017,-13.86103 -0.6329,-24.82029 0.2209,-35.18258 0.6317,-7.66694 1.2235,-9.97073 3.1554,-12.28474 1.3078,-1.56647 2.8286,-3.89834 3.3796,-5.18194 0.5824,-1.3567 1.8308,-2.3338 2.982,-2.3338 1.0892,0 3.1593,-0.82142 4.6002,-1.82537 1.4409,-1.00395 4.5281,-2.09566 6.8606,-2.42603 3.8735,-0.54865 4.5183,-0.33027 7.4454,2.52149 1.7626,1.71718 3.2185,3.9575 3.2354,4.97847 0.017,1.02098 2.4565,5.19771 5.4212,9.28162 2.9647,4.08392 7.4129,10.86522 9.8847,15.06955 2.4719,4.20434 5.2331,8.57842 6.136,9.72018 0.9028,1.14176 1.6415,3.34789 1.6415,4.90252 0,1.55462 1.206,4.39861 2.6799,6.31997 3.3492,4.36565 4.5092,10.00571 3.2429,15.76693 -0.8702,3.95957 -0.7278,4.67725 1.3085,6.59721 2.0584,1.94081 2.2454,2.9427 1.8876,10.10953 -0.2667,5.34113 -0.9669,8.72535 -2.1308,10.2989 -1.3623,1.84168 -1.5002,2.88766 -0.6436,4.88337 0.8916,2.07733 0.7098,2.99538 -0.9991,5.04282 -2.0381,2.44172 -2.4456,4.76947 -1.5659,8.9448 1.1323,5.37363 20.0291,4.16207 29.6764,-1.90267 2.635,-1.65645 6.0631,-3.57601 7.6183,-4.26568 6.251,-2.77235 11.3186,-10.75797 11.3186,-17.83645 0,-1.83156 0.8764,-4.31841 1.9517,-5.53794 1.0734,-1.21745 2.9158,-3.88423 4.0941,-5.92619 1.1783,-2.04195 4.3173,-5.8527 6.9755,-8.46832 4.3067,-4.23749 5.5279,-4.87671 11.2076,-5.86648 8.29,-1.44466 12.528,-0.729 20.8288,3.51726 5.5342,2.83096 7.2468,4.29393 9.1351,7.80318 1.9147,3.55825 3.022,4.48864 6.2871,5.28207 2.1797,0.52969 5.3777,1.79966 7.1067,2.82217 1.729,1.02251 3.9424,1.86186 4.9188,1.86522 0.9765,0.004 3.0984,1.01422 4.7154,2.24635 2.9177,2.22319 2.9386,2.31815 2.7432,12.48353 -0.1084,5.63382 -0.6978,11.07222 -1.31,12.08536 -1.144,1.89353 0.8531,13.02132 2.9741,16.57061 0.5376,0.89986 1.5457,2.99356 2.24,4.65265 0.9938,2.37492 1.8482,3.00795 4.0168,2.97627 4.6069,-0.0673 10.9967,-3.90738 12.2978,-7.3906 0.9847,-2.63596 1.9374,-3.30635 6.2872,-4.42424 2.8196,-0.72463 5.6397,-1.69012 6.2669,-2.14553 1.3015,-0.94507 3.4644,-8.90138 4.6467,-17.0928 0.4421,-3.06294 1.8242,-7.95629 3.0715,-10.87412 2.0366,-4.76448 2.637,-5.36652 5.8908,-5.90722 8.392,-1.39452 21.4017,6.82681 21.4017,13.52464 0,1.06721 -0.9978,4.67614 -2.2174,8.01986 -2.4503,6.71814 -2.2078,10.9696 0.837,14.6737 2.2319,2.7151 3.6859,2.90414 7.0993,0.92306 1.3759,-0.79854 5.0836,-1.68794 8.2396,-1.97645 4.7379,-0.43315 5.9375,-0.91268 6.8834,-2.7516 0.6301,-1.22487 2.7537,-3.06741 4.7189,-4.09453 1.9654,-1.02712 3.8644,-2.89461 4.2202,-4.14998 0.3557,-1.25536 1.3088,-2.28247 2.1181,-2.28247 4.1767,0 12.9431,-10.92112 11.4791,-14.30055 -0.298,-0.68775 0.4361,-2.65914 1.6314,-4.38086 1.1952,-1.72172 3.1196,-5.92001 4.2763,-9.32953 1.5089,-4.44724 3.0323,-6.89152 5.3906,-8.64923 3.5291,-2.63029 4.8562,-2.61784 12.9101,0.12111 4.7009,1.59866 11.428,8.22962 10.5065,10.35645 -0.3243,0.7486 0.8011,4.75315 2.5009,8.899 1.6999,4.14585 3.637,10.87929 4.3048,14.9632 0.8456,5.17057 1.8814,8.06309 3.4109,9.52569 1.2082,1.15522 2.3047,2.82591 2.4366,3.71265 1.4543,9.76824 2.168,12.44144 4.3493,16.2901 1.3928,2.45744 3.2849,4.72387 4.2046,5.03648 0.9197,0.31262 4.77,-0.40585 8.5561,-1.5966 7.7582,-2.43999 31.6795,-12.43656 35.7408,-14.93589 1.4635,-0.90056 5.679,-2.33014 9.3679,-3.17684 3.6889,-0.84671 8.4049,-2.30668 10.48,-3.24439 2.5486,-1.15168 6.8953,-1.83882 13.3952,-2.11754 8.5926,-0.36846 9.8216,-0.21666 11.4839,1.41847 1.0238,1.00711 2.9225,2.19049 4.2192,2.62976 1.5115,0.51204 2.3576,1.57407 2.3576,2.95921 0,2.68546 -5.0785,8.91469 -9.9527,12.20775 -3.0796,2.08059 -3.6694,3.05634 -3.6694,6.07072 0,3.26151 -0.2984,3.64972 -3.2471,4.22338 -1.9261,0.37473 -3.7165,0.21593 -4.4009,-0.39033 -1.6226,-1.43723 -7.1641,-1.21889 -9.5433,0.37598 -1.0985,0.73645 -4.3993,1.95813 -7.335,2.71483 -2.9356,0.7567 -6.9729,2.44547 -8.9718,3.7528 -1.9988,1.30735 -6.2426,3.07536 -9.4307,3.92895 -3.188,0.85357 -6.5271,2.0882 -7.4202,2.74361 -0.8932,0.6554 -3.6356,1.82036 -6.0944,2.58879 -6.7699,2.11572 -9.9552,4.55892 -11.4019,8.74534 -1.2945,3.74626 -0.5864,7.38126 2.8253,14.50268 0.4892,1.02098 1.4735,3.2304 2.1874,4.90982 0.7139,1.67942 2.0582,3.56304 2.9874,4.18582 3.4392,2.30527 5.4271,5.12548 6.7373,9.55809 0.7397,2.50268 3.0894,6.73882 5.2215,9.41365 2.1321,2.67483 3.8765,5.65493 3.8765,6.62243 0,0.9675 1.1789,2.44327 2.6197,3.27948 1.5987,0.92788 2.6196,2.39498 2.6196,3.76462 0,1.23431 0.4716,2.50241 1.0479,2.81791 0.5763,0.3155 1.0478,1.5685 1.0478,2.7845 0,1.216 0.5322,2.5021 1.1826,2.8582 0.6504,0.3561 3.0641,4.2442 5.3637,8.6403 4.1124,7.8617 4.1701,8.12 3.5194,15.7333 -0.3639,4.2572 -1.0894,8.4484 -1.6123,9.3138 -0.9091,1.5048 -16.2281,7.6907 -18.408,7.4334 -0.5763,-0.068 -3.1698,-0.4817 -5.7632,-0.9192 z m -9.538,-24.4378 c 2.5117,-1.375 1.3738,-5.6469 -3.5777,-13.4311 -1.4311,-2.2498 -2.6021,-4.6957 -2.6021,-5.4354 0,-0.7395 -1.4205,-2.9333 -3.1567,-4.875 -1.7362,-1.94171 -3.8382,-5.24133 -4.6711,-7.33253 -0.8329,-2.0912 -2.8732,-5.36589 -4.5339,-7.27709 -3.0189,-3.47447 -4.4837,-6.33526 -9.265,-18.09556 -2.5279,-6.21781 -7.1976,-13.23977 -10.3413,-15.55079 -2.0787,-1.52815 -12.6015,0.32624 -13.9483,2.45806 -0.4848,0.76733 -2.9655,1.63522 -5.5127,1.92866 -2.9689,0.34202 -5.8667,1.48394 -8.0732,3.18138 -1.8931,1.45631 -4.084,2.64785 -4.8688,2.64785 -1.2312,0 -7.931,5.8692 -7.931,6.94783 0,0.21235 0.5325,2.59944 1.1835,5.30463 0.7933,3.29758 2.6926,6.68079 5.7632,10.26583 2.5188,2.94102 4.5797,6.04116 4.5797,6.88921 0,1.39576 5.0784,7.06936 13.2245,14.77442 1.6739,1.5832 4.5701,3.5779 6.4359,4.4326 1.8658,0.8546 3.3924,1.9479 3.3924,2.4296 0,0.4817 2.7113,1.9852 6.0252,3.3411 3.3138,1.356 7.8585,3.3076 10.0992,4.3368 7.2081,3.3108 23.9506,5.1548 27.7782,3.0595 z M 1101.896,905.18459 c 2.4397,-2.17022 7.1745,-6.00338 10.5219,-8.51812 7.866,-5.90939 10.5442,-9.24192 9.7318,-12.1093 -0.8947,-3.15754 -4.2367,-3.8096 -7.5814,-1.47918 -1.5157,1.05613 -3.4185,1.92025 -4.2282,1.92025 -1.8698,0 -9.7063,3.4698 -12.1673,5.38737 -4.6404,3.61574 -7.6954,15.00403 -4.7297,17.63105 2.1033,1.86298 3.8225,1.28698 8.4529,-2.83207 z m 152.4452,-2.27709 c 2.6047,-3.09641 1.13,-7.31949 -3.8524,-11.03304 -1.5403,-1.14805 -3.7203,-3.68695 -4.8444,-5.642 -1.124,-1.95504 -2.5152,-3.86148 -3.0916,-4.23654 -1.9631,-1.27755 -5.6867,-0.71488 -6.7334,1.0175 -1.3771,2.27912 -0.1592,17.47625 1.498,18.69458 4.804,3.53152 14.4882,4.21388 17.0238,1.1995 z m -110.7846,-47.20678 c 1.4281,-3.32731 1.2134,-10.00987 -0.55,-17.11058 -0.824,-3.31817 -1.5226,-8.12141 -1.5525,-10.67386 -0.075,-6.48029 -4.8207,-14.85059 -8.4182,-14.85059 -2.4235,0 -2.6347,0.44741 -3.9436,8.35346 -1.2929,7.80928 -1.25,8.59531 0.6568,12.0661 1.1218,2.04196 2.8667,7.05403 3.8775,11.13795 2.7917,11.27929 7.56,16.59876 9.93,11.07752 z m -491.99383,86.15364 c -3.92337,-0.3537 -7.37988,-2.1444 -16.33343,-8.4618 -1.86952,-1.31909 -3.92651,-2.00014 -5.17067,-1.71194 -1.43285,0.3319 -3.6398,-0.7747 -7.20063,-3.61051 -2.824,-2.24899 -5.92672,-4.08907 -6.89492,-4.08907 -0.96822,0 -3.21346,1.28708 -4.98943,2.86019 -2.64759,2.34517 -3.81232,2.76514 -6.46848,2.33237 -4.37845,-0.71341 -13.92842,1.64826 -16.99959,4.20392 -2.42566,2.01848 -2.60438,2.03343 -6.19272,0.51772 -2.03224,-0.85841 -4.29468,-1.56074 -5.02764,-1.56074 -0.73295,0 -2.93047,-1.04418 -4.88337,-2.32041 -1.9529,-1.27622 -4.34795,-2.3204 -5.32234,-2.3204 -0.97439,0 -2.57124,-1.08099 -3.54858,-2.4022 -1.39137,-1.88095 -2.33715,-2.27767 -4.35859,-1.82827 -3.84607,0.85504 -8.48918,-2.00806 -10.39712,-6.41121 -2.40905,-5.55963 -12.03766,-14.16664 -16.71822,-14.94442 -3.5396,-0.58818 -10.68264,-0.0648 -11.72576,0.85918 -0.25634,0.22705 -0.89243,4.10839 -1.41352,8.62518 -1.15307,9.99471 -2.50414,15.14109 -5.20695,19.83387 -2.54141,4.41254 -2.59274,4.43985 -9.74458,5.1844 -5.56176,0.579 -6.00835,0.46684 -9.12164,-2.29082 -2.20262,-1.95102 -3.0733,-3.45849 -2.66144,-4.60791 0.33666,-0.93956 -0.0774,-3.43945 -0.92023,-5.5553 -0.84279,-2.11587 -1.45444,-5.57737 -1.35923,-7.69223 0.14277,-3.1712 -0.32599,-4.19771 -2.67425,-5.85627 -1.78057,-1.25761 -2.84734,-2.9117 -2.84734,-4.41498 0,-1.32216 -0.64579,-2.87868 -1.4351,-3.45892 -0.78931,-0.58023 -2.22156,-2.82415 -3.18277,-4.98649 -1.26873,-2.8541 -3.35283,-4.94896 -7.60492,-7.64417 -3.22148,-2.04195 -6.88619,-4.62746 -8.14381,-5.74556 -1.43567,-1.27642 -4.21312,-2.25608 -7.4637,-2.6326 -4.64939,-0.53856 -5.61747,-0.31582 -9.49698,2.18509 -3.2831,2.11645 -4.49919,3.63159 -5.06714,6.31318 -0.41101,1.94061 -1.44736,4.72754 -2.30301,6.19317 -2.41714,4.14031 -2.7853,13.3287 -0.75357,18.80749 1.64287,4.43022 1.6371,4.84485 -0.10007,7.19325 -1.01463,1.37162 -2.81581,2.49205 -4.00619,2.49205 -1.18953,0 -3.65755,0.47878 -5.4845,1.06396 -3.93615,1.26075 -8.15671,0.50256 -10.94349,-1.9659 -1.73842,-1.53984 -1.92924,-2.66587 -1.39978,-8.25993 0.45058,-4.76058 0.1775,-7.44123 -1.03047,-10.11539 -1.23026,-2.72349 -1.40483,-4.54981 -0.69429,-7.26317 0.52207,-1.99366 0.96047,-4.99415 0.97422,-6.66776 0.0546,-6.64934 10.89943,-22.82021 19.79876,-29.52226 3.96553,-2.98642 12.38486,-5.4337 15.29292,-4.44525 0.92768,0.31533 2.56595,-0.13195 3.64163,-0.99424 1.77463,-1.42257 2.42471,-1.44319 7.034,-0.22311 2.79325,0.73938 7.66134,2.85592 10.81796,4.70343 3.15661,1.8475 6.45735,3.41823 7.33498,3.4905 0.87762,0.0723 2.65808,0.17668 3.95659,0.23204 2.24877,0.0959 3.16512,1.00545 8.75062,8.68614 1.20651,1.65909 2.56749,3.01652 3.02441,3.01652 0.45692,0 1.12662,1.04419 1.48824,2.32041 0.77383,2.73098 1.67465,2.84498 6.17083,0.78092 4.98764,-2.28969 9.66914,-3.16598 19.92646,-3.72992 8.21278,-0.45154 9.49194,-0.30389 11.5264,1.33036 1.30377,1.0473 4.54275,2.0867 7.52769,2.41565 4.1475,0.45708 5.78517,1.1701 7.85891,3.42164 1.4408,1.56433 5.56673,5.51742 9.16873,8.78466 3.73291,3.38597 6.54909,6.76053 6.54909,7.84762 0,2.46936 2.84373,4.57172 9.10925,6.73445 6.26471,2.16245 17.17377,1.528 21.13059,-1.22891 1.38946,-0.9681 3.41743,-1.76018 4.50661,-1.76018 1.13388,0 2.39481,-0.96564 2.95004,-2.25917 1.25885,-2.93282 -0.16265,-10.82794 -2.52438,-14.02068 -1.55212,-2.09825 -1.72217,-3.65142 -1.09113,-9.96585 0.88641,-8.8699 2.15844,-11.90049 6.16731,-14.69368 2.72213,-1.89664 3.38211,-1.98274 7.57817,-0.98866 2.528,0.5989 5.45958,1.08891 6.51463,1.08891 2.24726,0 5.38664,-2.78824 5.38664,-4.78414 0,-1.8033 4.36381,-5.42564 6.53623,-5.42564 0.9272,0 3.21739,1.1486 5.08931,2.55245 1.87192,1.40384 5.56249,3.80951 8.20127,5.34592 4.50761,2.62454 4.83172,3.09237 5.35909,7.73534 0.42981,3.78404 1.1663,5.36706 3.14356,6.75674 l 2.58225,1.81489 -2.35767,1.46888 c -1.73354,1.08005 -2.35767,2.39354 -2.35767,4.96175 0,4.46847 -2.91883,12.55338 -5.99216,16.59778 -2.92501,3.84919 -2.93015,4.02347 -0.18347,6.22375 1.21396,0.97248 3.10164,3.32044 4.19485,5.21771 3.26835,5.6723 7.48372,6.70708 14.46714,3.55136 2.80075,-1.26562 5.15256,-1.65381 7.75404,-1.27987 3.35749,0.4826 4.34793,0.0685 9.8223,-4.10665 3.34855,-2.55387 7.55436,-5.2996 9.34622,-6.10166 3.55002,-1.589 6.29094,-6.15015 5.2038,-8.65958 -0.43456,-1.0031 0.50057,-3.03882 2.56641,-5.58687 1.78755,-2.2048 3.51991,-5.57445 3.84968,-7.4881 0.94528,-5.48547 2.63308,-6.62506 8.39889,-5.67094 5.21604,0.86315 6.99009,1.74674 13.14344,6.5463 3.11143,2.42688 4.14374,4.06694 4.92455,7.82369 1.20234,5.78492 6.66458,15.58105 9.75798,17.50026 2.11987,1.3152 2.50511,1.19368 6.11571,-1.92926 3.7273,-3.22387 6.989,-10.0936 8.93742,-18.82384 0.46411,-2.07949 1.69299,-3.64485 3.63735,-4.6333 2.19623,-1.11649 3.01461,-2.31357 3.24656,-4.74887 0.29686,-3.11706 0.50039,-3.26827 4.76735,-3.54165 3.89926,-0.24982 4.86044,0.0988 7.67803,2.78449 1.77143,1.68853 4.18212,4.8505 5.35708,7.02658 1.17497,2.17609 2.55309,4.18469 3.06248,4.46355 0.5094,0.27886 0.92618,1.367 0.92618,2.41808 0,1.05108 1.29672,3.30827 2.8816,5.01599 1.58488,1.7077 3.97842,4.3733 5.31897,5.92354 4.03614,4.66745 7.95216,3.98646 17.15022,-2.9824 4.21115,-3.19056 7.81381,-6.11427 8.00591,-6.49713 0.19212,-0.38287 2.16831,-0.69613 4.39155,-0.69613 5.13436,0 5.77992,-0.98879 3.14491,-4.81704 -1.45839,-2.11881 -2.11591,-4.69518 -2.11862,-8.30126 -0.004,-4.92505 0.23985,-5.42399 4.19052,-8.5855 5.18748,-4.15124 9.96074,-4.43903 17.18597,-1.03616 2.70976,1.27622 5.75067,2.3204 6.75754,2.3204 1.00688,0 2.3248,0.43767 2.92871,0.97259 0.76546,0.67803 1.93879,0.63328 3.87398,-0.14773 2.13151,-0.86024 3.71712,-0.87056 6.83007,-0.0445 6.40147,1.69884 8.96342,1.33868 12.0081,-1.68812 1.52919,-1.52022 4.08269,-3.0449 5.67444,-3.3882 1.59176,-0.34329 4.443,-1.81435 6.3361,-3.26902 1.89308,-1.45468 4.16434,-2.64487 5.04722,-2.64487 0.88288,0 3.2231,-1.09305 5.20049,-2.429 2.60097,-1.75724 4.39282,-2.29186 6.47918,-1.93314 1.84242,0.3168 4.59608,-0.26258 7.62494,-1.6043 4.71876,-2.0903 4.77284,-2.09244 11.52079,-0.45628 7.17648,1.74006 8.85232,3.10667 11.20846,9.14024 1.16952,2.9949 1.0888,3.45439 -0.83475,4.75137 -1.17121,0.78971 -2.70315,2.4604 -3.4043,3.71265 -0.83267,1.48712 -2.34529,2.38546 -4.36114,2.59007 -1.69746,0.1723 -4.436,1.16456 -6.08564,2.20503 -2.60346,1.64208 -3.3337,1.73326 -5.53264,0.69085 -1.39331,-0.66051 -2.75911,-1.00089 -3.03511,-0.75642 -0.41397,0.36667 -1.17274,3.1187 -1.51919,5.51004 -0.0429,0.29561 -2.55342,1.50344 -5.5791,2.68408 -3.02568,1.18064 -9.812,3.96691 -15.08071,6.19171 -5.2687,2.2248 -9.88526,4.04509 -10.25901,4.04509 -0.37374,0 -2.10147,0.93119 -3.83938,2.06931 -2.91016,1.90582 -4.3309,2.07226 -17.98183,2.1067 l -14.82201,0.0374 -3.71871,5.16365 c -3.37682,4.6889 -16.54987,16.61151 -18.35372,16.61151 -0.41021,0 -2.81577,1.88652 -5.34569,4.19228 -5.54905,5.05737 -8.1351,6.0175 -16.20788,6.0175 -5.17839,0 -6.92004,-0.45394 -10.67229,-2.78161 -2.46621,-1.52989 -6.75214,-3.15134 -9.52428,-3.60324 -2.77213,-0.45189 -6.18582,-1.77489 -7.58596,-2.94002 -2.42098,-2.01459 -2.64347,-2.04003 -4.54072,-0.51916 -1.09726,0.87958 -3.04367,4.48802 -4.32536,8.01878 -1.28169,3.53074 -3.04188,6.9426 -3.91154,7.58191 -1.72722,1.26973 -7.56989,1.39708 -14.93857,0.32563 -7.2926,-1.06039 -19.53265,-6.72984 -24.55756,-11.3748 -2.89948,-2.68024 -5.81778,-4.39145 -8.35287,-4.89789 -3.49394,-0.69801 -4.01188,-0.55394 -5.01423,1.39469 -0.61479,1.19521 -2.56353,2.70354 -4.33053,3.35185 -1.76698,0.6483 -4.82906,2.43581 -6.80461,3.97224 -3.04817,2.37061 -4.35383,2.76412 -8.62514,2.5995 -4.05632,-0.15633 -5.64738,0.26376 -8.19735,2.16432 -1.74025,1.29707 -3.4403,3.12911 -3.77787,4.07122 -1.06283,2.96616 -9.13236,4.15263 -20.97927,3.0846 z M 1568.868,796.88675 c -6.3871,-1.10574 -9.8377,-3.97822 -11.2392,-9.35612 -0.6839,-2.6245 -1.2435,-6.1715 -1.2435,-7.88221 0,-2.17149 -0.7537,-3.63555 -2.4969,-4.85014 l -2.497,-1.73974 2.235,-1.8516 c 1.2293,-1.01838 3.3415,-3.03028 4.6939,-4.47086 2.151,-2.29131 2.9839,-2.55688 6.6521,-2.12107 2.3062,0.27399 5.3053,1.42359 6.6644,2.55463 1.8173,1.51227 3.259,1.91694 5.4476,1.52921 4.5465,-0.80542 5.9179,0.42145 5.1366,4.59503 -0.4061,2.16933 0.016,6.09055 1.074,9.9792 1.6848,6.19225 1.6758,6.45514 -0.2714,7.88937 -1.1079,0.81603 -2.5935,2.63228 -3.3014,4.03613 -1.3739,2.72465 -3.2141,3.01087 -10.8542,1.68817 z m 32.5234,-6.8235 c -5.7663,-6.06878 -8.3312,-9.61172 -8.3312,-11.50834 0,-0.95622 -0.6792,-2.59754 -1.5094,-3.64739 -1.5495,-1.95956 -1.7118,-4.7165 -0.8955,-15.21114 0.4199,-5.39784 0.7091,-6.04619 2.7469,-6.15791 1.2528,-0.0687 3.2536,-0.41096 4.4465,-0.76064 4.9778,-1.4592 14.0755,10.46667 16.1401,21.15744 1.4259,7.38392 0.7361,9.89332 -2.7194,9.89332 -0.7939,0 -1.4461,0.73093 -1.4494,1.62428 -0.011,3.1476 -2.2034,8.58514 -3.4489,8.55507 -0.6933,-0.0167 -2.9342,-1.79186 -4.9797,-3.94469 z m -1272.11276,-6.4667 c -0.65473,-1.1486 -2.58239,-3.1398 -4.28366,-4.42489 -3.63087,-2.74263 -5.57383,-8.58772 -3.7259,-11.20873 0.90055,-1.27729 0.88116,-2.46324 -0.0787,-4.81451 -0.7005,-1.71587 -1.27361,-4.71677 -1.27361,-6.66868 v -3.54893 l 6.6402,0.54924 c 3.65211,0.30209 7.8028,1.01846 9.22375,1.59193 3.10446,1.25292 4.97309,6.1952 5.58091,14.76075 0.44412,6.25873 -0.10259,7.40912 -6.46531,13.60331 -2.86919,2.79322 -4.09698,2.8283 -5.61768,0.16051 z m 48.79406,-4.70017 c -6.09111,-1.77281 -11.55261,-4.20321 -13.9385,-6.20272 -2.23553,-1.87351 -2.35979,-2.50814 -1.69733,-8.66958 0.39313,-3.65646 0.85962,-6.79597 1.03664,-6.97669 0.17703,-0.18072 2.5912,-0.44481 5.36482,-0.58687 2.77363,-0.14204 7.28274,-0.56369 10.02027,-0.937 4.67745,-0.63783 4.9773,-0.55417 4.9773,1.38865 0,1.13707 1.02146,3.67723 2.26992,5.64483 2.08133,3.2802 2.16478,3.99358 1.00446,8.58618 -1.63326,6.46453 -4.63055,9.03586 -9.03758,7.7532 z M 1900.6056,488.6731 c 0.3561,-0.51049 0.8555,-0.92816 1.1097,-0.92816 0.2542,0 0.4621,0.41767 0.4621,0.92816 0,0.51049 -0.4995,0.92816 -1.1097,0.92816 -0.6104,0 -0.8183,-0.41767 -0.4621,-0.92816 z M 973.86076,308.06826 c 0.0503,-1.08126 0.29864,-1.30119 0.63311,-0.56076 0.30273,0.67001 0.26553,1.47055 -0.0828,1.77898 -0.3482,0.30842 -0.59591,-0.23978 -0.55043,-1.21822 z"
         id="path1695"
         clip-path="url(#clipPath1633)" />
    </clipPath>
  </defs>
  <sodipodi:namedview
     id="namedview4"
     pagecolor="#ffffff"
     bordercolor="#000000"
     borderopacity="0.25"
     inkscape:showpageshadow="2"
     inkscape:pageopacity="0.0"
     inkscape:pagecheckerboard="0"
     inkscape:deskcolor="#d1d1d1"
     showgrid="false"
     inkscape:zoom="0.38163511"
     inkscape:cx="539.78262"
     inkscape:cy="96.951247"
     inkscape:window-width="1920"
     inkscape:window-height="1009"
     inkscape:window-x="1912"
     inkscape:window-y="-8"
     inkscape:window-maximized="1"
     inkscape:current-layer="layer1" />
  <g
     inkscape:groupmode="layer"
     id="layer1"
     inkscape:label="clipping"
     transform="translate(-319.91677,-733.68512)">
    <path
       id="rect1689"
       clip-path="url(#clipPath1693)"
       style="fill:#3b3b3b;fill-opacity:1;stroke:#969696;stroke-width:0"
       d="M 309.19607,733.68512 V 1066.4644 H 1635.0691 V 733.68512 Z m 135.45898,101.96289 c 4.20146,-0.0745 7.53869,2.02213 9.33984,5.37305 14.9873,2.33041 16.76009,18.25183 1.31446,24.31054 0.85212,2.32013 1.48143,4.985 1.71679,8.11524 0.21301,2.83283 0.45345,5.6631 0.74805,8.48828 1.2729,1.29892 2.67666,2.46403 3.90625,3.80859 15.77402,17.249 2.34627,33.61971 -13.33594,22.80469 -3.02094,0.48791 -6.24977,-0.42429 -9.02929,-2.83203 -0.39243,0.0426 -0.76374,0.14943 -1.16992,0.14648 0.15577,0.89277 0.30768,1.78496 0.45507,2.67969 0.3022,4.27615 1.86947,8.20598 3.20703,12.2207 0.2682,0.92003 0.53648,1.84169 0.80469,2.76172 7.25976,24.90295 -18.16758,32.21099 -25.18359,7.23828 l -0.48828,-1.74218 c -1.75836,-5.31841 -3.67306,-10.60937 -4.19532,-16.23633 -0.94412,-5.77948 -2.13652,-11.51965 -2.41601,-17.38672 -0.69169,-5.92873 -1.55408,-11.84633 -2.98438,-17.64844 -3.26222,-13.23348 2.07899,-21.3861 8.81055,-22.58984 1.80474,-4.15937 6.10135,-8.18101 13.11524,-10.60547 5.20758,-6.19102 10.74109,-8.82393 15.38476,-8.90625 z" />
  </g>
  <g
     inkscape:groupmode="layer"
     inkscape:label="Image"
     id="g8"
     transform="translate(-319.91677,-733.68512)" />
</svg>
